<mxfile host="Electron" modified="2024-06-01T19:41:06.532Z" agent="Mozilla/5.0 (Windows NT 10.0; Win64; x64) AppleWebKit/537.36 (KHTML, like Gecko) draw.io/24.4.13 Chrome/124.0.6367.207 Electron/30.0.6 Safari/537.36" etag="YMurM0o_tM3E97HMhniV" version="24.4.13" type="device">
  <diagram name="Page-1" id="e56a1550-8fbb-45ad-956c-1786394a9013">
    <mxGraphModel dx="2346" dy="3186" grid="1" gridSize="10" guides="1" tooltips="1" connect="1" arrows="1" fold="1" page="0" pageScale="1" pageWidth="1100" pageHeight="850" background="none" math="0" shadow="0">
      <root>
        <mxCell id="0" />
        <mxCell id="1" parent="0" />
        <mxCell id="Apdd7xmMuzyrqDYArtQR-21" style="edgeStyle=orthogonalEdgeStyle;rounded=0;orthogonalLoop=1;jettySize=auto;html=1;entryX=1;entryY=0.5;entryDx=0;entryDy=0;endArrow=none;endFill=0;exitX=0;exitY=0.75;exitDx=0;exitDy=0;shape=link;" edge="1" parent="1" source="Apdd7xmMuzyrqDYArtQR-1" target="Apdd7xmMuzyrqDYArtQR-18">
          <mxGeometry relative="1" as="geometry">
            <Array as="points">
              <mxPoint x="510" y="-20" />
              <mxPoint x="510" y="10" />
            </Array>
          </mxGeometry>
        </mxCell>
        <mxCell id="Apdd7xmMuzyrqDYArtQR-117" style="edgeStyle=orthogonalEdgeStyle;rounded=0;orthogonalLoop=1;jettySize=auto;html=1;exitX=1;exitY=0.75;exitDx=0;exitDy=0;entryX=0;entryY=0.5;entryDx=0;entryDy=0;shape=link;" edge="1" parent="1" source="Apdd7xmMuzyrqDYArtQR-1" target="Apdd7xmMuzyrqDYArtQR-115">
          <mxGeometry relative="1" as="geometry">
            <Array as="points">
              <mxPoint x="690" y="-20" />
              <mxPoint x="690" y="40" />
            </Array>
          </mxGeometry>
        </mxCell>
        <mxCell id="Apdd7xmMuzyrqDYArtQR-126" value="&lt;font style=&quot;font-size: 15px;&quot;&gt;N&lt;/font&gt;" style="edgeLabel;html=1;align=center;verticalAlign=middle;resizable=0;points=[];" vertex="1" connectable="0" parent="Apdd7xmMuzyrqDYArtQR-117">
          <mxGeometry x="0.9293" y="-1" relative="1" as="geometry">
            <mxPoint x="-8" y="-1" as="offset" />
          </mxGeometry>
        </mxCell>
        <mxCell id="Apdd7xmMuzyrqDYArtQR-1" value="CShip" style="rounded=0;whiteSpace=wrap;html=1;" vertex="1" parent="1">
          <mxGeometry x="530" y="-80" width="120" height="80" as="geometry" />
        </mxCell>
        <mxCell id="Apdd7xmMuzyrqDYArtQR-6" value="Port" style="rounded=0;whiteSpace=wrap;html=1;" vertex="1" parent="1">
          <mxGeometry x="1290" y="-80" width="120" height="80" as="geometry" />
        </mxCell>
        <mxCell id="Apdd7xmMuzyrqDYArtQR-8" value="CLine" style="rounded=0;whiteSpace=wrap;html=1;" vertex="1" parent="1">
          <mxGeometry x="970" y="-80" width="120" height="80" as="geometry" />
        </mxCell>
        <mxCell id="Apdd7xmMuzyrqDYArtQR-9" value="Trip" style="rounded=0;whiteSpace=wrap;html=1;" vertex="1" parent="1">
          <mxGeometry x="1650" y="-80" width="120" height="80" as="geometry" />
        </mxCell>
        <mxCell id="Apdd7xmMuzyrqDYArtQR-10" value="TripLeg" style="rounded=0;whiteSpace=wrap;html=1;" vertex="1" parent="1">
          <mxGeometry x="2130" y="-80" width="120" height="80" as="geometry" />
        </mxCell>
        <mxCell id="Apdd7xmMuzyrqDYArtQR-96" style="edgeStyle=orthogonalEdgeStyle;rounded=0;orthogonalLoop=1;jettySize=auto;html=1;entryX=0.5;entryY=0;entryDx=0;entryDy=0;exitX=0.25;exitY=1;exitDx=0;exitDy=0;endArrow=none;endFill=0;" edge="1" parent="1" source="Apdd7xmMuzyrqDYArtQR-11" target="Apdd7xmMuzyrqDYArtQR-12">
          <mxGeometry relative="1" as="geometry">
            <Array as="points">
              <mxPoint x="2520" y="60" />
              <mxPoint x="2410" y="60" />
            </Array>
          </mxGeometry>
        </mxCell>
        <mxCell id="Apdd7xmMuzyrqDYArtQR-114" value="U" style="edgeLabel;html=1;align=center;verticalAlign=middle;resizable=0;points=[];" vertex="1" connectable="0" parent="Apdd7xmMuzyrqDYArtQR-96">
          <mxGeometry x="-0.7261" y="1" relative="1" as="geometry">
            <mxPoint as="offset" />
          </mxGeometry>
        </mxCell>
        <mxCell id="Apdd7xmMuzyrqDYArtQR-11" value="Person" style="rounded=0;whiteSpace=wrap;html=1;" vertex="1" parent="1">
          <mxGeometry x="2490" y="-80" width="120" height="80" as="geometry" />
        </mxCell>
        <mxCell id="Apdd7xmMuzyrqDYArtQR-12" value="Passenger" style="rounded=0;whiteSpace=wrap;html=1;" vertex="1" parent="1">
          <mxGeometry x="2350" y="260" width="120" height="80" as="geometry" />
        </mxCell>
        <mxCell id="Apdd7xmMuzyrqDYArtQR-13" value="Crew" style="rounded=0;whiteSpace=wrap;html=1;shadow=0;" vertex="1" parent="1">
          <mxGeometry x="2670" y="120" width="120" height="80" as="geometry" />
        </mxCell>
        <mxCell id="Apdd7xmMuzyrqDYArtQR-14" value="&lt;u&gt;ShipID&lt;/u&gt;" style="ellipse;whiteSpace=wrap;html=1;" vertex="1" parent="1">
          <mxGeometry x="410" y="-160" width="80" height="40" as="geometry" />
        </mxCell>
        <mxCell id="Apdd7xmMuzyrqDYArtQR-15" value="ShipName" style="ellipse;whiteSpace=wrap;html=1;" vertex="1" parent="1">
          <mxGeometry x="410" y="-110" width="80" height="40" as="geometry" />
        </mxCell>
        <mxCell id="Apdd7xmMuzyrqDYArtQR-16" value="ShipStatus" style="ellipse;whiteSpace=wrap;html=1;" vertex="1" parent="1">
          <mxGeometry x="410" y="-60" width="80" height="40" as="geometry" />
        </mxCell>
        <mxCell id="Apdd7xmMuzyrqDYArtQR-17" value="Lifeboats" style="ellipse;whiteSpace=wrap;html=1;" vertex="1" parent="1">
          <mxGeometry x="410" y="90" width="80" height="40" as="geometry" />
        </mxCell>
        <mxCell id="Apdd7xmMuzyrqDYArtQR-18" value="ShipType" style="ellipse;whiteSpace=wrap;html=1;" vertex="1" parent="1">
          <mxGeometry x="410" y="-10" width="80" height="40" as="geometry" />
        </mxCell>
        <mxCell id="Apdd7xmMuzyrqDYArtQR-19" value="ShipCapa" style="ellipse;whiteSpace=wrap;html=1;" vertex="1" parent="1">
          <mxGeometry x="410" y="40" width="80" height="40" as="geometry" />
        </mxCell>
        <mxCell id="Apdd7xmMuzyrqDYArtQR-22" style="edgeStyle=orthogonalEdgeStyle;rounded=0;orthogonalLoop=1;jettySize=auto;html=1;entryX=0;entryY=0.5;entryDx=0;entryDy=0;endArrow=none;endFill=0;exitX=1;exitY=0.5;exitDx=0;exitDy=0;shape=link;" edge="1" parent="1" source="Apdd7xmMuzyrqDYArtQR-16" target="Apdd7xmMuzyrqDYArtQR-1">
          <mxGeometry relative="1" as="geometry">
            <mxPoint x="540" y="-30" as="sourcePoint" />
            <mxPoint x="500" y="20" as="targetPoint" />
          </mxGeometry>
        </mxCell>
        <mxCell id="Apdd7xmMuzyrqDYArtQR-23" style="edgeStyle=orthogonalEdgeStyle;rounded=0;orthogonalLoop=1;jettySize=auto;html=1;endArrow=none;endFill=0;exitX=1;exitY=0.5;exitDx=0;exitDy=0;shape=link;entryX=0.25;entryY=0;entryDx=0;entryDy=0;" edge="1" parent="1" source="Apdd7xmMuzyrqDYArtQR-14" target="Apdd7xmMuzyrqDYArtQR-1">
          <mxGeometry relative="1" as="geometry">
            <mxPoint x="550" y="-20" as="sourcePoint" />
            <mxPoint x="550" y="-100" as="targetPoint" />
            <Array as="points">
              <mxPoint x="560" y="-140" />
            </Array>
          </mxGeometry>
        </mxCell>
        <mxCell id="Apdd7xmMuzyrqDYArtQR-24" style="edgeStyle=orthogonalEdgeStyle;rounded=0;orthogonalLoop=1;jettySize=auto;html=1;entryX=1;entryY=0.5;entryDx=0;entryDy=0;endArrow=none;endFill=0;exitX=0;exitY=0.25;exitDx=0;exitDy=0;shape=link;" edge="1" parent="1" source="Apdd7xmMuzyrqDYArtQR-1" target="Apdd7xmMuzyrqDYArtQR-15">
          <mxGeometry relative="1" as="geometry">
            <mxPoint x="560" y="-10" as="sourcePoint" />
            <mxPoint x="520" y="40" as="targetPoint" />
          </mxGeometry>
        </mxCell>
        <mxCell id="Apdd7xmMuzyrqDYArtQR-25" style="edgeStyle=orthogonalEdgeStyle;rounded=0;orthogonalLoop=1;jettySize=auto;html=1;endArrow=none;endFill=0;exitX=0.25;exitY=1;exitDx=0;exitDy=0;entryX=1;entryY=0.5;entryDx=0;entryDy=0;shape=link;" edge="1" parent="1" source="Apdd7xmMuzyrqDYArtQR-1" target="Apdd7xmMuzyrqDYArtQR-19">
          <mxGeometry relative="1" as="geometry">
            <mxPoint x="570" y="20" as="sourcePoint" />
            <mxPoint x="520" y="30" as="targetPoint" />
          </mxGeometry>
        </mxCell>
        <mxCell id="Apdd7xmMuzyrqDYArtQR-26" style="edgeStyle=orthogonalEdgeStyle;rounded=0;orthogonalLoop=1;jettySize=auto;html=1;endArrow=none;endFill=0;exitX=0.5;exitY=1;exitDx=0;exitDy=0;entryX=1;entryY=0.5;entryDx=0;entryDy=0;shape=link;" edge="1" parent="1" source="Apdd7xmMuzyrqDYArtQR-1" target="Apdd7xmMuzyrqDYArtQR-17">
          <mxGeometry relative="1" as="geometry">
            <mxPoint x="570" y="10" as="sourcePoint" />
            <mxPoint x="540" y="50" as="targetPoint" />
            <Array as="points">
              <mxPoint x="590" y="110" />
            </Array>
          </mxGeometry>
        </mxCell>
        <mxCell id="Apdd7xmMuzyrqDYArtQR-27" value="&lt;u&gt;PortID&lt;/u&gt;" style="ellipse;whiteSpace=wrap;html=1;" vertex="1" parent="1">
          <mxGeometry x="1170" y="-110" width="80" height="40" as="geometry" />
        </mxCell>
        <mxCell id="Apdd7xmMuzyrqDYArtQR-28" value="PortName" style="ellipse;whiteSpace=wrap;html=1;" vertex="1" parent="1">
          <mxGeometry x="1170" y="-60" width="80" height="40" as="geometry" />
        </mxCell>
        <mxCell id="Apdd7xmMuzyrqDYArtQR-29" value="PortAddress" style="ellipse;whiteSpace=wrap;html=1;" vertex="1" parent="1">
          <mxGeometry x="1310" y="40" width="80" height="40" as="geometry" />
        </mxCell>
        <mxCell id="Apdd7xmMuzyrqDYArtQR-30" value="PortCapa" style="ellipse;whiteSpace=wrap;html=1;" vertex="1" parent="1">
          <mxGeometry x="1170" y="-10" width="80" height="40" as="geometry" />
        </mxCell>
        <mxCell id="Apdd7xmMuzyrqDYArtQR-31" style="edgeStyle=orthogonalEdgeStyle;rounded=0;orthogonalLoop=1;jettySize=auto;html=1;entryX=1;entryY=0.5;entryDx=0;entryDy=0;endArrow=none;endFill=0;exitX=0;exitY=0.25;exitDx=0;exitDy=0;shape=link;" edge="1" parent="1" source="Apdd7xmMuzyrqDYArtQR-6" target="Apdd7xmMuzyrqDYArtQR-27">
          <mxGeometry relative="1" as="geometry">
            <mxPoint x="1310" y="20" as="sourcePoint" />
            <mxPoint x="1270" y="-10" as="targetPoint" />
          </mxGeometry>
        </mxCell>
        <mxCell id="Apdd7xmMuzyrqDYArtQR-32" style="edgeStyle=orthogonalEdgeStyle;rounded=0;orthogonalLoop=1;jettySize=auto;html=1;entryX=1;entryY=0.5;entryDx=0;entryDy=0;endArrow=none;endFill=0;exitX=0;exitY=0.5;exitDx=0;exitDy=0;shape=link;" edge="1" parent="1" source="Apdd7xmMuzyrqDYArtQR-6" target="Apdd7xmMuzyrqDYArtQR-28">
          <mxGeometry relative="1" as="geometry">
            <mxPoint x="1300" y="-0.4800000000000182" as="sourcePoint" />
            <mxPoint x="1260" y="-30.480000000000018" as="targetPoint" />
          </mxGeometry>
        </mxCell>
        <mxCell id="Apdd7xmMuzyrqDYArtQR-33" style="edgeStyle=orthogonalEdgeStyle;rounded=0;orthogonalLoop=1;jettySize=auto;html=1;entryX=1;entryY=0.5;entryDx=0;entryDy=0;endArrow=none;endFill=0;exitX=0;exitY=0.75;exitDx=0;exitDy=0;shape=link;" edge="1" parent="1" source="Apdd7xmMuzyrqDYArtQR-6" target="Apdd7xmMuzyrqDYArtQR-30">
          <mxGeometry relative="1" as="geometry">
            <mxPoint x="1310" y="-40" as="sourcePoint" />
            <mxPoint x="1270" y="-70" as="targetPoint" />
          </mxGeometry>
        </mxCell>
        <mxCell id="Apdd7xmMuzyrqDYArtQR-34" style="edgeStyle=orthogonalEdgeStyle;rounded=0;orthogonalLoop=1;jettySize=auto;html=1;entryX=0.5;entryY=0;entryDx=0;entryDy=0;endArrow=none;endFill=0;exitX=0.5;exitY=1;exitDx=0;exitDy=0;shape=link;" edge="1" parent="1" source="Apdd7xmMuzyrqDYArtQR-6" target="Apdd7xmMuzyrqDYArtQR-29">
          <mxGeometry relative="1" as="geometry">
            <mxPoint x="1299.96" y="139.96000000000004" as="sourcePoint" />
            <mxPoint x="1229.96" y="79.96000000000004" as="targetPoint" />
          </mxGeometry>
        </mxCell>
        <mxCell id="Apdd7xmMuzyrqDYArtQR-35" value="City" style="ellipse;whiteSpace=wrap;html=1;" vertex="1" parent="1">
          <mxGeometry x="1220" y="90" width="80" height="40" as="geometry" />
        </mxCell>
        <mxCell id="Apdd7xmMuzyrqDYArtQR-36" value="State" style="ellipse;whiteSpace=wrap;html=1;" vertex="1" parent="1">
          <mxGeometry x="1310" y="90" width="80" height="40" as="geometry" />
        </mxCell>
        <mxCell id="Apdd7xmMuzyrqDYArtQR-37" value="Country" style="ellipse;whiteSpace=wrap;html=1;" vertex="1" parent="1">
          <mxGeometry x="1400" y="90" width="80" height="40" as="geometry" />
        </mxCell>
        <mxCell id="Apdd7xmMuzyrqDYArtQR-39" style="edgeStyle=orthogonalEdgeStyle;rounded=0;orthogonalLoop=1;jettySize=auto;html=1;entryX=0.5;entryY=0;entryDx=0;entryDy=0;endArrow=none;endFill=0;exitX=0.5;exitY=1;exitDx=0;exitDy=0;" edge="1" parent="1" source="Apdd7xmMuzyrqDYArtQR-29" target="Apdd7xmMuzyrqDYArtQR-36">
          <mxGeometry relative="1" as="geometry">
            <mxPoint x="1360" y="10" as="sourcePoint" />
            <mxPoint x="1360" y="50" as="targetPoint" />
          </mxGeometry>
        </mxCell>
        <mxCell id="Apdd7xmMuzyrqDYArtQR-40" style="edgeStyle=orthogonalEdgeStyle;rounded=0;orthogonalLoop=1;jettySize=auto;html=1;entryX=0.5;entryY=0;entryDx=0;entryDy=0;endArrow=none;endFill=0;exitX=0;exitY=0.5;exitDx=0;exitDy=0;" edge="1" parent="1" source="Apdd7xmMuzyrqDYArtQR-29" target="Apdd7xmMuzyrqDYArtQR-35">
          <mxGeometry relative="1" as="geometry">
            <mxPoint x="1270" y="50" as="sourcePoint" />
            <mxPoint x="1370" y="60" as="targetPoint" />
            <Array as="points">
              <mxPoint x="1260" y="60" />
            </Array>
          </mxGeometry>
        </mxCell>
        <mxCell id="Apdd7xmMuzyrqDYArtQR-42" style="edgeStyle=orthogonalEdgeStyle;rounded=0;orthogonalLoop=1;jettySize=auto;html=1;entryX=0.5;entryY=0;entryDx=0;entryDy=0;endArrow=none;endFill=0;exitX=1;exitY=0.5;exitDx=0;exitDy=0;" edge="1" parent="1" source="Apdd7xmMuzyrqDYArtQR-29" target="Apdd7xmMuzyrqDYArtQR-37">
          <mxGeometry relative="1" as="geometry">
            <mxPoint x="1380" y="30" as="sourcePoint" />
            <mxPoint x="1380" y="70" as="targetPoint" />
          </mxGeometry>
        </mxCell>
        <mxCell id="Apdd7xmMuzyrqDYArtQR-43" value="&lt;u&gt;LineID&lt;/u&gt;" style="ellipse;whiteSpace=wrap;html=1;" vertex="1" parent="1">
          <mxGeometry x="990" y="40" width="80" height="40" as="geometry" />
        </mxCell>
        <mxCell id="Apdd7xmMuzyrqDYArtQR-47" style="edgeStyle=orthogonalEdgeStyle;rounded=0;orthogonalLoop=1;jettySize=auto;html=1;endArrow=none;endFill=0;exitX=0.5;exitY=1;exitDx=0;exitDy=0;entryX=0.5;entryY=0;entryDx=0;entryDy=0;shape=link;" edge="1" parent="1" source="Apdd7xmMuzyrqDYArtQR-8" target="Apdd7xmMuzyrqDYArtQR-43">
          <mxGeometry relative="1" as="geometry">
            <mxPoint x="1100" y="40" as="sourcePoint" />
            <mxPoint x="1100" y="180" as="targetPoint" />
            <Array as="points">
              <mxPoint x="1030" y="10" />
              <mxPoint x="1030" y="10" />
            </Array>
          </mxGeometry>
        </mxCell>
        <mxCell id="Apdd7xmMuzyrqDYArtQR-48" value="&lt;u&gt;TripID&lt;/u&gt;" style="ellipse;whiteSpace=wrap;html=1;" vertex="1" parent="1">
          <mxGeometry x="1530" y="-110" width="80" height="40" as="geometry" />
        </mxCell>
        <mxCell id="Apdd7xmMuzyrqDYArtQR-49" value="Progress" style="ellipse;whiteSpace=wrap;html=1;" vertex="1" parent="1">
          <mxGeometry x="1530" y="-60" width="80" height="40" as="geometry" />
        </mxCell>
        <mxCell id="Apdd7xmMuzyrqDYArtQR-50" value="Cost" style="ellipse;whiteSpace=wrap;html=1;" vertex="1" parent="1">
          <mxGeometry x="1810" y="-110" width="80" height="40" as="geometry" />
        </mxCell>
        <mxCell id="Apdd7xmMuzyrqDYArtQR-51" value="Arrival" style="ellipse;whiteSpace=wrap;html=1;" vertex="1" parent="1">
          <mxGeometry x="1530" y="-10" width="80" height="40" as="geometry" />
        </mxCell>
        <mxCell id="Apdd7xmMuzyrqDYArtQR-52" value="Departure" style="ellipse;whiteSpace=wrap;html=1;" vertex="1" parent="1">
          <mxGeometry x="1530" y="40" width="80" height="40" as="geometry" />
        </mxCell>
        <mxCell id="Apdd7xmMuzyrqDYArtQR-53" value="&lt;u&gt;LegSeq&lt;/u&gt;" style="ellipse;whiteSpace=wrap;html=1;" vertex="1" parent="1">
          <mxGeometry x="1530" y="-160" width="80" height="40" as="geometry" />
        </mxCell>
        <mxCell id="Apdd7xmMuzyrqDYArtQR-54" value="TripType" style="ellipse;whiteSpace=wrap;html=1;" vertex="1" parent="1">
          <mxGeometry x="1810" y="-10" width="80" height="40" as="geometry" />
        </mxCell>
        <mxCell id="Apdd7xmMuzyrqDYArtQR-55" style="edgeStyle=orthogonalEdgeStyle;rounded=0;orthogonalLoop=1;jettySize=auto;html=1;endArrow=none;endFill=0;shape=link;entryX=0.25;entryY=0;entryDx=0;entryDy=0;" edge="1" parent="1" target="Apdd7xmMuzyrqDYArtQR-9">
          <mxGeometry relative="1" as="geometry">
            <mxPoint x="1610" y="-140" as="sourcePoint" />
            <mxPoint x="1550" y="290" as="targetPoint" />
            <Array as="points">
              <mxPoint x="1680" y="-140" />
            </Array>
          </mxGeometry>
        </mxCell>
        <mxCell id="Apdd7xmMuzyrqDYArtQR-56" style="edgeStyle=orthogonalEdgeStyle;rounded=0;orthogonalLoop=1;jettySize=auto;html=1;endArrow=none;endFill=0;shape=link;entryX=0;entryY=0.25;entryDx=0;entryDy=0;exitX=1;exitY=0.5;exitDx=0;exitDy=0;" edge="1" parent="1" source="Apdd7xmMuzyrqDYArtQR-48" target="Apdd7xmMuzyrqDYArtQR-9">
          <mxGeometry relative="1" as="geometry">
            <mxPoint x="1780" y="-150" as="sourcePoint" />
            <mxPoint x="1820" y="-70" as="targetPoint" />
            <Array as="points">
              <mxPoint x="1630" y="-90" />
              <mxPoint x="1630" y="-60" />
            </Array>
          </mxGeometry>
        </mxCell>
        <mxCell id="Apdd7xmMuzyrqDYArtQR-57" style="edgeStyle=orthogonalEdgeStyle;rounded=0;orthogonalLoop=1;jettySize=auto;html=1;endArrow=none;endFill=0;shape=link;entryX=0;entryY=0.5;entryDx=0;entryDy=0;exitX=1;exitY=0.5;exitDx=0;exitDy=0;" edge="1" parent="1" source="Apdd7xmMuzyrqDYArtQR-49" target="Apdd7xmMuzyrqDYArtQR-9">
          <mxGeometry relative="1" as="geometry">
            <mxPoint x="1710" y="-140" as="sourcePoint" />
            <mxPoint x="1780" y="-80" as="targetPoint" />
            <Array as="points">
              <mxPoint x="1630" y="-40" />
              <mxPoint x="1630" y="-40" />
            </Array>
          </mxGeometry>
        </mxCell>
        <mxCell id="Apdd7xmMuzyrqDYArtQR-58" style="edgeStyle=orthogonalEdgeStyle;rounded=0;orthogonalLoop=1;jettySize=auto;html=1;endArrow=none;endFill=0;shape=link;entryX=0;entryY=0.75;entryDx=0;entryDy=0;exitX=1;exitY=0.5;exitDx=0;exitDy=0;" edge="1" parent="1" source="Apdd7xmMuzyrqDYArtQR-51" target="Apdd7xmMuzyrqDYArtQR-9">
          <mxGeometry relative="1" as="geometry">
            <mxPoint x="1640" y="10" as="sourcePoint" />
            <mxPoint x="1700" y="-60" as="targetPoint" />
            <Array as="points">
              <mxPoint x="1630" y="10" />
              <mxPoint x="1630" y="-20" />
            </Array>
          </mxGeometry>
        </mxCell>
        <mxCell id="Apdd7xmMuzyrqDYArtQR-60" style="edgeStyle=orthogonalEdgeStyle;rounded=0;orthogonalLoop=1;jettySize=auto;html=1;endArrow=none;endFill=0;shape=link;entryX=1;entryY=0.5;entryDx=0;entryDy=0;exitX=0.25;exitY=1;exitDx=0;exitDy=0;" edge="1" parent="1" source="Apdd7xmMuzyrqDYArtQR-9" target="Apdd7xmMuzyrqDYArtQR-52">
          <mxGeometry relative="1" as="geometry">
            <mxPoint x="1600" y="110" as="sourcePoint" />
            <mxPoint x="1670" y="170" as="targetPoint" />
            <Array as="points">
              <mxPoint x="1680" y="60" />
            </Array>
          </mxGeometry>
        </mxCell>
        <mxCell id="Apdd7xmMuzyrqDYArtQR-61" style="edgeStyle=orthogonalEdgeStyle;rounded=0;orthogonalLoop=1;jettySize=auto;html=1;endArrow=none;endFill=0;shape=link;entryX=0;entryY=0.5;entryDx=0;entryDy=0;exitX=1;exitY=0.25;exitDx=0;exitDy=0;" edge="1" parent="1" source="Apdd7xmMuzyrqDYArtQR-9" target="Apdd7xmMuzyrqDYArtQR-50">
          <mxGeometry relative="1" as="geometry">
            <mxPoint x="1780" y="-60" as="sourcePoint" />
            <mxPoint x="1910" y="-30" as="targetPoint" />
            <Array as="points">
              <mxPoint x="1790" y="-60" />
              <mxPoint x="1790" y="-90" />
            </Array>
          </mxGeometry>
        </mxCell>
        <mxCell id="Apdd7xmMuzyrqDYArtQR-62" style="edgeStyle=orthogonalEdgeStyle;rounded=0;orthogonalLoop=1;jettySize=auto;html=1;endArrow=none;endFill=0;shape=link;entryX=1;entryY=0.75;entryDx=0;entryDy=0;exitX=0;exitY=0.5;exitDx=0;exitDy=0;" edge="1" parent="1" source="Apdd7xmMuzyrqDYArtQR-54" target="Apdd7xmMuzyrqDYArtQR-9">
          <mxGeometry relative="1" as="geometry">
            <mxPoint x="1630" y="-70" as="sourcePoint" />
            <mxPoint x="1670" y="-40" as="targetPoint" />
            <Array as="points">
              <mxPoint x="1790" y="10" />
              <mxPoint x="1790" y="-20" />
            </Array>
          </mxGeometry>
        </mxCell>
        <mxCell id="Apdd7xmMuzyrqDYArtQR-63" value="&lt;u&gt;LegID&lt;/u&gt;" style="ellipse;whiteSpace=wrap;html=1;" vertex="1" parent="1">
          <mxGeometry x="2150" y="40" width="80" height="40" as="geometry" />
        </mxCell>
        <mxCell id="Apdd7xmMuzyrqDYArtQR-64" value="StartPort" style="ellipse;whiteSpace=wrap;html=1;" vertex="1" parent="1">
          <mxGeometry x="2010" y="-110" width="80" height="40" as="geometry" />
        </mxCell>
        <mxCell id="Apdd7xmMuzyrqDYArtQR-65" value="EndPort" style="ellipse;whiteSpace=wrap;html=1;" vertex="1" parent="1">
          <mxGeometry x="2010" y="-60" width="80" height="40" as="geometry" />
        </mxCell>
        <mxCell id="Apdd7xmMuzyrqDYArtQR-66" value="Distance" style="ellipse;whiteSpace=wrap;html=1;" vertex="1" parent="1">
          <mxGeometry x="2010" y="-10" width="80" height="40" as="geometry" />
        </mxCell>
        <mxCell id="Apdd7xmMuzyrqDYArtQR-67" style="edgeStyle=orthogonalEdgeStyle;rounded=0;orthogonalLoop=1;jettySize=auto;html=1;endArrow=none;endFill=0;shape=link;entryX=0.5;entryY=1;entryDx=0;entryDy=0;exitX=0.5;exitY=0;exitDx=0;exitDy=0;" edge="1" parent="1" source="Apdd7xmMuzyrqDYArtQR-63" target="Apdd7xmMuzyrqDYArtQR-10">
          <mxGeometry relative="1" as="geometry">
            <mxPoint x="2180" y="-160.04000000000002" as="sourcePoint" />
            <mxPoint x="2220" y="-190.04000000000002" as="targetPoint" />
            <Array as="points">
              <mxPoint x="2190" y="10" />
              <mxPoint x="2190" y="10" />
            </Array>
          </mxGeometry>
        </mxCell>
        <mxCell id="Apdd7xmMuzyrqDYArtQR-68" style="edgeStyle=orthogonalEdgeStyle;rounded=0;orthogonalLoop=1;jettySize=auto;html=1;endArrow=none;endFill=0;shape=link;entryX=0;entryY=0.25;entryDx=0;entryDy=0;exitX=1;exitY=0.5;exitDx=0;exitDy=0;" edge="1" parent="1" source="Apdd7xmMuzyrqDYArtQR-64" target="Apdd7xmMuzyrqDYArtQR-10">
          <mxGeometry relative="1" as="geometry">
            <mxPoint x="2070" y="170" as="sourcePoint" />
            <mxPoint x="2070" y="60" as="targetPoint" />
            <Array as="points">
              <mxPoint x="2110" y="-90" />
              <mxPoint x="2110" y="-60" />
            </Array>
          </mxGeometry>
        </mxCell>
        <mxCell id="Apdd7xmMuzyrqDYArtQR-69" style="edgeStyle=orthogonalEdgeStyle;rounded=0;orthogonalLoop=1;jettySize=auto;html=1;endArrow=none;endFill=0;shape=link;exitX=1;exitY=0.5;exitDx=0;exitDy=0;entryX=0;entryY=0.75;entryDx=0;entryDy=0;" edge="1" parent="1" source="Apdd7xmMuzyrqDYArtQR-66" target="Apdd7xmMuzyrqDYArtQR-10">
          <mxGeometry relative="1" as="geometry">
            <mxPoint x="2100" y="59.98000000000002" as="sourcePoint" />
            <mxPoint x="2140" y="30" as="targetPoint" />
            <Array as="points">
              <mxPoint x="2110" y="10" />
              <mxPoint x="2110" y="-20" />
            </Array>
          </mxGeometry>
        </mxCell>
        <mxCell id="Apdd7xmMuzyrqDYArtQR-70" style="edgeStyle=orthogonalEdgeStyle;rounded=0;orthogonalLoop=1;jettySize=auto;html=1;endArrow=none;endFill=0;shape=link;entryX=0;entryY=0.5;entryDx=0;entryDy=0;exitX=1;exitY=0.5;exitDx=0;exitDy=0;" edge="1" parent="1" source="Apdd7xmMuzyrqDYArtQR-65" target="Apdd7xmMuzyrqDYArtQR-10">
          <mxGeometry relative="1" as="geometry">
            <mxPoint x="2080" y="120" as="sourcePoint" />
            <mxPoint x="2080" y="80" as="targetPoint" />
            <Array as="points">
              <mxPoint x="2100" y="-40" />
              <mxPoint x="2100" y="-40" />
            </Array>
          </mxGeometry>
        </mxCell>
        <mxCell id="Apdd7xmMuzyrqDYArtQR-71" value="&lt;u&gt;PersonID&lt;/u&gt;" style="ellipse;whiteSpace=wrap;html=1;" vertex="1" parent="1">
          <mxGeometry x="2370" y="-110" width="80" height="40" as="geometry" />
        </mxCell>
        <mxCell id="Apdd7xmMuzyrqDYArtQR-72" value="PersonStatus" style="ellipse;whiteSpace=wrap;html=1;" vertex="1" parent="1">
          <mxGeometry x="2370" y="-10" width="80" height="40" as="geometry" />
        </mxCell>
        <mxCell id="Apdd7xmMuzyrqDYArtQR-73" value="PersonName" style="ellipse;whiteSpace=wrap;html=1;" vertex="1" parent="1">
          <mxGeometry x="2650" y="-60" width="80" height="40" as="geometry" />
        </mxCell>
        <mxCell id="Apdd7xmMuzyrqDYArtQR-74" style="edgeStyle=orthogonalEdgeStyle;rounded=0;orthogonalLoop=1;jettySize=auto;html=1;endArrow=none;endFill=0;shape=link;exitX=1;exitY=0.5;exitDx=0;exitDy=0;entryX=0;entryY=0.5;entryDx=0;entryDy=0;" edge="1" parent="1" source="Apdd7xmMuzyrqDYArtQR-11" target="Apdd7xmMuzyrqDYArtQR-73">
          <mxGeometry relative="1" as="geometry">
            <mxPoint x="2630" y="50" as="sourcePoint" />
            <mxPoint x="2670" y="20" as="targetPoint" />
            <Array as="points" />
          </mxGeometry>
        </mxCell>
        <mxCell id="Apdd7xmMuzyrqDYArtQR-75" style="edgeStyle=orthogonalEdgeStyle;rounded=0;orthogonalLoop=1;jettySize=auto;html=1;endArrow=none;endFill=0;shape=link;entryX=0;entryY=0.75;entryDx=0;entryDy=0;exitX=1;exitY=0.5;exitDx=0;exitDy=0;" edge="1" parent="1" source="Apdd7xmMuzyrqDYArtQR-72" target="Apdd7xmMuzyrqDYArtQR-11">
          <mxGeometry relative="1" as="geometry">
            <mxPoint x="2200" y="70" as="sourcePoint" />
            <mxPoint x="2470" y="30" as="targetPoint" />
            <Array as="points" />
          </mxGeometry>
        </mxCell>
        <mxCell id="Apdd7xmMuzyrqDYArtQR-76" style="edgeStyle=orthogonalEdgeStyle;rounded=0;orthogonalLoop=1;jettySize=auto;html=1;endArrow=none;endFill=0;shape=link;entryX=0;entryY=0.25;entryDx=0;entryDy=0;exitX=1;exitY=0.5;exitDx=0;exitDy=0;" edge="1" parent="1" source="Apdd7xmMuzyrqDYArtQR-71" target="Apdd7xmMuzyrqDYArtQR-11">
          <mxGeometry relative="1" as="geometry">
            <mxPoint x="2470" y="20" as="sourcePoint" />
            <mxPoint x="2500" y="-10" as="targetPoint" />
            <Array as="points">
              <mxPoint x="2470" y="-90" />
              <mxPoint x="2470" y="-60" />
            </Array>
          </mxGeometry>
        </mxCell>
        <mxCell id="Apdd7xmMuzyrqDYArtQR-77" value="FName" style="ellipse;whiteSpace=wrap;html=1;" vertex="1" parent="1">
          <mxGeometry x="2740" y="-110" width="80" height="40" as="geometry" />
        </mxCell>
        <mxCell id="Apdd7xmMuzyrqDYArtQR-78" value="MInitial" style="ellipse;whiteSpace=wrap;html=1;" vertex="1" parent="1">
          <mxGeometry x="2740" y="-60" width="80" height="40" as="geometry" />
        </mxCell>
        <mxCell id="Apdd7xmMuzyrqDYArtQR-79" value="LName" style="ellipse;whiteSpace=wrap;html=1;" vertex="1" parent="1">
          <mxGeometry x="2740" y="-10" width="80" height="40" as="geometry" />
        </mxCell>
        <mxCell id="Apdd7xmMuzyrqDYArtQR-81" style="edgeStyle=orthogonalEdgeStyle;rounded=0;orthogonalLoop=1;jettySize=auto;html=1;endArrow=none;endFill=0;exitX=1;exitY=0.5;exitDx=0;exitDy=0;entryX=0;entryY=0.5;entryDx=0;entryDy=0;" edge="1" parent="1" source="Apdd7xmMuzyrqDYArtQR-73" target="Apdd7xmMuzyrqDYArtQR-78">
          <mxGeometry relative="1" as="geometry">
            <mxPoint x="2620" y="-30" as="sourcePoint" />
            <mxPoint x="2660" y="-30" as="targetPoint" />
            <Array as="points" />
          </mxGeometry>
        </mxCell>
        <mxCell id="Apdd7xmMuzyrqDYArtQR-82" style="edgeStyle=orthogonalEdgeStyle;rounded=0;orthogonalLoop=1;jettySize=auto;html=1;endArrow=none;endFill=0;entryX=0;entryY=0.5;entryDx=0;entryDy=0;exitX=0.5;exitY=0;exitDx=0;exitDy=0;" edge="1" parent="1" source="Apdd7xmMuzyrqDYArtQR-73" target="Apdd7xmMuzyrqDYArtQR-77">
          <mxGeometry relative="1" as="geometry">
            <mxPoint x="2610" y="30" as="sourcePoint" />
            <mxPoint x="2720" y="90" as="targetPoint" />
            <Array as="points">
              <mxPoint x="2690" y="-90" />
            </Array>
          </mxGeometry>
        </mxCell>
        <mxCell id="Apdd7xmMuzyrqDYArtQR-83" style="edgeStyle=orthogonalEdgeStyle;rounded=0;orthogonalLoop=1;jettySize=auto;html=1;endArrow=none;endFill=0;entryX=0;entryY=0.5;entryDx=0;entryDy=0;exitX=0.5;exitY=1;exitDx=0;exitDy=0;" edge="1" parent="1" source="Apdd7xmMuzyrqDYArtQR-73" target="Apdd7xmMuzyrqDYArtQR-79">
          <mxGeometry relative="1" as="geometry">
            <mxPoint x="2665" y="70" as="sourcePoint" />
            <mxPoint x="2715" y="40" as="targetPoint" />
            <Array as="points">
              <mxPoint x="2690" y="10" />
            </Array>
          </mxGeometry>
        </mxCell>
        <mxCell id="Apdd7xmMuzyrqDYArtQR-84" value="Credit" style="ellipse;whiteSpace=wrap;html=1;" vertex="1" parent="1">
          <mxGeometry x="2510" y="320" width="80" height="40" as="geometry" />
        </mxCell>
        <mxCell id="Apdd7xmMuzyrqDYArtQR-85" value="Miles" style="ellipse;whiteSpace=wrap;html=1;" vertex="1" parent="1">
          <mxGeometry x="2510" y="240" width="80" height="40" as="geometry" />
        </mxCell>
        <mxCell id="Apdd7xmMuzyrqDYArtQR-86" style="edgeStyle=orthogonalEdgeStyle;rounded=0;orthogonalLoop=1;jettySize=auto;html=1;endArrow=none;endFill=0;shape=link;entryX=1;entryY=0.75;entryDx=0;entryDy=0;exitX=0;exitY=0.5;exitDx=0;exitDy=0;" edge="1" parent="1" source="Apdd7xmMuzyrqDYArtQR-84" target="Apdd7xmMuzyrqDYArtQR-12">
          <mxGeometry relative="1" as="geometry">
            <mxPoint x="2250" y="314.75" as="sourcePoint" />
            <mxPoint x="2290" y="284.75" as="targetPoint" />
            <Array as="points" />
          </mxGeometry>
        </mxCell>
        <mxCell id="Apdd7xmMuzyrqDYArtQR-87" style="edgeStyle=orthogonalEdgeStyle;rounded=0;orthogonalLoop=1;jettySize=auto;html=1;endArrow=none;endFill=0;shape=link;entryX=1;entryY=0.25;entryDx=0;entryDy=0;exitX=0;exitY=0.5;exitDx=0;exitDy=0;" edge="1" parent="1" source="Apdd7xmMuzyrqDYArtQR-85" target="Apdd7xmMuzyrqDYArtQR-12">
          <mxGeometry relative="1" as="geometry">
            <mxPoint x="2450" y="50" as="sourcePoint" />
            <mxPoint x="2490" y="20" as="targetPoint" />
            <Array as="points" />
          </mxGeometry>
        </mxCell>
        <mxCell id="Apdd7xmMuzyrqDYArtQR-88" value="Job" style="ellipse;whiteSpace=wrap;html=1;shadow=0;" vertex="1" parent="1">
          <mxGeometry x="2550" y="90" width="80" height="40" as="geometry" />
        </mxCell>
        <mxCell id="Apdd7xmMuzyrqDYArtQR-89" value="&lt;u&gt;TaxID&lt;/u&gt;" style="ellipse;whiteSpace=wrap;html=1;shadow=0;" vertex="1" parent="1">
          <mxGeometry x="2690" y="240" width="80" height="40" as="geometry" />
        </mxCell>
        <mxCell id="Apdd7xmMuzyrqDYArtQR-90" value="Liscences" style="ellipse;whiteSpace=wrap;html=1;shadow=0;" vertex="1" parent="1">
          <mxGeometry x="2550" y="140" width="80" height="40" as="geometry" />
        </mxCell>
        <mxCell id="Apdd7xmMuzyrqDYArtQR-91" value="NumLegs" style="ellipse;whiteSpace=wrap;html=1;shadow=0;" vertex="1" parent="1">
          <mxGeometry x="2550" y="190" width="80" height="40" as="geometry" />
        </mxCell>
        <mxCell id="Apdd7xmMuzyrqDYArtQR-92" style="edgeStyle=orthogonalEdgeStyle;rounded=0;orthogonalLoop=1;jettySize=auto;html=1;endArrow=none;endFill=0;shape=link;entryX=1;entryY=0.5;entryDx=0;entryDy=0;exitX=0;exitY=0.5;exitDx=0;exitDy=0;shadow=0;" edge="1" parent="1" source="Apdd7xmMuzyrqDYArtQR-13" target="Apdd7xmMuzyrqDYArtQR-90">
          <mxGeometry relative="1" as="geometry">
            <mxPoint x="2690" y="300" as="sourcePoint" />
            <mxPoint x="2660" y="260" as="targetPoint" />
            <Array as="points" />
          </mxGeometry>
        </mxCell>
        <mxCell id="Apdd7xmMuzyrqDYArtQR-93" style="edgeStyle=orthogonalEdgeStyle;rounded=0;orthogonalLoop=1;jettySize=auto;html=1;endArrow=none;endFill=0;shape=link;entryX=1;entryY=0.5;entryDx=0;entryDy=0;exitX=0;exitY=0.75;exitDx=0;exitDy=0;shadow=0;" edge="1" parent="1" source="Apdd7xmMuzyrqDYArtQR-13" target="Apdd7xmMuzyrqDYArtQR-91">
          <mxGeometry relative="1" as="geometry">
            <mxPoint x="2680" y="320" as="sourcePoint" />
            <mxPoint x="2650" y="280" as="targetPoint" />
            <Array as="points" />
          </mxGeometry>
        </mxCell>
        <mxCell id="Apdd7xmMuzyrqDYArtQR-94" style="edgeStyle=orthogonalEdgeStyle;rounded=0;orthogonalLoop=1;jettySize=auto;html=1;endArrow=none;endFill=0;shape=link;entryX=1;entryY=0.5;entryDx=0;entryDy=0;exitX=0;exitY=0.25;exitDx=0;exitDy=0;shadow=0;" edge="1" parent="1" source="Apdd7xmMuzyrqDYArtQR-13" target="Apdd7xmMuzyrqDYArtQR-88">
          <mxGeometry relative="1" as="geometry">
            <mxPoint x="2640" y="300" as="sourcePoint" />
            <mxPoint x="2610" y="260" as="targetPoint" />
            <Array as="points" />
          </mxGeometry>
        </mxCell>
        <mxCell id="Apdd7xmMuzyrqDYArtQR-95" style="edgeStyle=orthogonalEdgeStyle;rounded=0;orthogonalLoop=1;jettySize=auto;html=1;endArrow=none;endFill=0;shape=link;entryX=0.5;entryY=1;entryDx=0;entryDy=0;exitX=0.5;exitY=0;exitDx=0;exitDy=0;shadow=0;" edge="1" parent="1" source="Apdd7xmMuzyrqDYArtQR-89" target="Apdd7xmMuzyrqDYArtQR-13">
          <mxGeometry relative="1" as="geometry">
            <mxPoint x="2660" y="340" as="sourcePoint" />
            <mxPoint x="2630" y="300" as="targetPoint" />
            <Array as="points" />
          </mxGeometry>
        </mxCell>
        <mxCell id="Apdd7xmMuzyrqDYArtQR-108" style="edgeStyle=orthogonalEdgeStyle;rounded=0;orthogonalLoop=1;jettySize=auto;html=1;entryX=0.5;entryY=0;entryDx=0;entryDy=0;exitX=0.75;exitY=1;exitDx=0;exitDy=0;endArrow=none;endFill=0;" edge="1" parent="1" source="Apdd7xmMuzyrqDYArtQR-11" target="Apdd7xmMuzyrqDYArtQR-13">
          <mxGeometry relative="1" as="geometry">
            <mxPoint x="2600.0299999999997" y="10" as="sourcePoint" />
            <mxPoint x="2490.0299999999997" y="130" as="targetPoint" />
            <Array as="points">
              <mxPoint x="2580" y="60" />
              <mxPoint x="2730" y="60" />
            </Array>
          </mxGeometry>
        </mxCell>
        <mxCell id="Apdd7xmMuzyrqDYArtQR-113" value="U" style="edgeLabel;html=1;align=center;verticalAlign=middle;resizable=0;points=[];" vertex="1" connectable="0" parent="Apdd7xmMuzyrqDYArtQR-108">
          <mxGeometry x="-0.7695" relative="1" as="geometry">
            <mxPoint as="offset" />
          </mxGeometry>
        </mxCell>
        <mxCell id="Apdd7xmMuzyrqDYArtQR-115" value="Owns" style="rhombus;whiteSpace=wrap;html=1;" vertex="1" parent="1">
          <mxGeometry x="730" width="120" height="80" as="geometry" />
        </mxCell>
        <mxCell id="Apdd7xmMuzyrqDYArtQR-116" value="Operates" style="rhombus;whiteSpace=wrap;html=1;" vertex="1" parent="1">
          <mxGeometry x="730" y="90" width="120" height="80" as="geometry" />
        </mxCell>
        <mxCell id="Apdd7xmMuzyrqDYArtQR-119" style="edgeStyle=orthogonalEdgeStyle;rounded=0;orthogonalLoop=1;jettySize=auto;html=1;exitX=0.75;exitY=1;exitDx=0;exitDy=0;entryX=0;entryY=0.5;entryDx=0;entryDy=0;shape=link;" edge="1" parent="1" source="Apdd7xmMuzyrqDYArtQR-1" target="Apdd7xmMuzyrqDYArtQR-116">
          <mxGeometry relative="1" as="geometry">
            <mxPoint x="465" y="110" as="sourcePoint" />
            <mxPoint x="535" y="350" as="targetPoint" />
            <Array as="points">
              <mxPoint x="620" y="130" />
            </Array>
          </mxGeometry>
        </mxCell>
        <mxCell id="Apdd7xmMuzyrqDYArtQR-123" value="N" style="edgeLabel;html=1;align=center;verticalAlign=middle;resizable=0;points=[];fontSize=15;" vertex="1" connectable="0" parent="Apdd7xmMuzyrqDYArtQR-119">
          <mxGeometry x="0.8719" y="1" relative="1" as="geometry">
            <mxPoint x="-24" y="1" as="offset" />
          </mxGeometry>
        </mxCell>
        <mxCell id="Apdd7xmMuzyrqDYArtQR-120" style="edgeStyle=orthogonalEdgeStyle;rounded=0;orthogonalLoop=1;jettySize=auto;html=1;exitX=1;exitY=0.5;exitDx=0;exitDy=0;entryX=0;entryY=0.25;entryDx=0;entryDy=0;shape=link;" edge="1" parent="1" source="Apdd7xmMuzyrqDYArtQR-115" target="Apdd7xmMuzyrqDYArtQR-8">
          <mxGeometry relative="1" as="geometry">
            <mxPoint x="890" y="130" as="sourcePoint" />
            <mxPoint x="910" y="430" as="targetPoint" />
            <Array as="points">
              <mxPoint x="890" y="40" />
              <mxPoint x="890" y="-60" />
            </Array>
          </mxGeometry>
        </mxCell>
        <mxCell id="Apdd7xmMuzyrqDYArtQR-125" value="&lt;font style=&quot;font-size: 15px;&quot;&gt;1&lt;/font&gt;" style="edgeLabel;html=1;align=center;verticalAlign=middle;resizable=0;points=[];" vertex="1" connectable="0" parent="Apdd7xmMuzyrqDYArtQR-120">
          <mxGeometry x="-0.9119" y="-1" relative="1" as="geometry">
            <mxPoint x="10" y="-1" as="offset" />
          </mxGeometry>
        </mxCell>
        <mxCell id="Apdd7xmMuzyrqDYArtQR-121" style="edgeStyle=orthogonalEdgeStyle;rounded=0;orthogonalLoop=1;jettySize=auto;html=1;exitX=1;exitY=0.5;exitDx=0;exitDy=0;shape=link;entryX=0;entryY=0.75;entryDx=0;entryDy=0;" edge="1" parent="1" source="Apdd7xmMuzyrqDYArtQR-116" target="Apdd7xmMuzyrqDYArtQR-8">
          <mxGeometry relative="1" as="geometry">
            <mxPoint x="880" y="340" as="sourcePoint" />
            <mxPoint x="880" y="30" as="targetPoint" />
            <Array as="points">
              <mxPoint x="930" y="130" />
              <mxPoint x="930" y="-20" />
            </Array>
          </mxGeometry>
        </mxCell>
        <mxCell id="Apdd7xmMuzyrqDYArtQR-122" value="1" style="edgeLabel;html=1;align=center;verticalAlign=middle;resizable=0;points=[];fontSize=15;" vertex="1" connectable="0" parent="Apdd7xmMuzyrqDYArtQR-121">
          <mxGeometry x="-0.835" y="1" relative="1" as="geometry">
            <mxPoint x="18" y="1" as="offset" />
          </mxGeometry>
        </mxCell>
        <mxCell id="Apdd7xmMuzyrqDYArtQR-127" value="Docked" style="rhombus;whiteSpace=wrap;html=1;" vertex="1" parent="1">
          <mxGeometry x="930" y="-240" width="120" height="80" as="geometry" />
        </mxCell>
        <mxCell id="Apdd7xmMuzyrqDYArtQR-128" value="OnTrip" style="rhombus;whiteSpace=wrap;html=1;" vertex="1" parent="1">
          <mxGeometry x="930" y="-330" width="120" height="80" as="geometry" />
        </mxCell>
        <mxCell id="Apdd7xmMuzyrqDYArtQR-129" value="AtLeg" style="rhombus;whiteSpace=wrap;html=1;" vertex="1" parent="1">
          <mxGeometry x="930" y="-420" width="120" height="80" as="geometry" />
        </mxCell>
        <mxCell id="Apdd7xmMuzyrqDYArtQR-130" style="edgeStyle=orthogonalEdgeStyle;rounded=0;orthogonalLoop=1;jettySize=auto;html=1;exitX=1;exitY=0.5;exitDx=0;exitDy=0;entryX=0;entryY=0.5;entryDx=0;entryDy=0;endArrow=none;endFill=0;" edge="1" parent="1" source="Apdd7xmMuzyrqDYArtQR-1" target="Apdd7xmMuzyrqDYArtQR-127">
          <mxGeometry relative="1" as="geometry">
            <mxPoint x="660" y="-190" as="sourcePoint" />
            <mxPoint x="870" y="-160" as="targetPoint" />
            <Array as="points">
              <mxPoint x="730" y="-40" />
              <mxPoint x="730" y="-200" />
            </Array>
          </mxGeometry>
        </mxCell>
        <mxCell id="Apdd7xmMuzyrqDYArtQR-131" value="&lt;font style=&quot;font-size: 15px;&quot;&gt;N&lt;/font&gt;" style="edgeLabel;html=1;align=center;verticalAlign=middle;resizable=0;points=[];" vertex="1" connectable="0" parent="Apdd7xmMuzyrqDYArtQR-130">
          <mxGeometry x="0.9293" y="-1" relative="1" as="geometry">
            <mxPoint x="-24" y="-1" as="offset" />
          </mxGeometry>
        </mxCell>
        <mxCell id="Apdd7xmMuzyrqDYArtQR-132" style="edgeStyle=orthogonalEdgeStyle;rounded=0;orthogonalLoop=1;jettySize=auto;html=1;exitX=1;exitY=0.5;exitDx=0;exitDy=0;entryX=0.5;entryY=0;entryDx=0;entryDy=0;endArrow=none;endFill=0;" edge="1" parent="1" source="Apdd7xmMuzyrqDYArtQR-127" target="Apdd7xmMuzyrqDYArtQR-6">
          <mxGeometry relative="1" as="geometry">
            <mxPoint x="710" y="-240" as="sourcePoint" />
            <mxPoint x="830" y="-540" as="targetPoint" />
            <Array as="points">
              <mxPoint x="1350" y="-200" />
            </Array>
          </mxGeometry>
        </mxCell>
        <mxCell id="Apdd7xmMuzyrqDYArtQR-133" value="&lt;font style=&quot;font-size: 15px;&quot;&gt;1&lt;/font&gt;" style="edgeLabel;html=1;align=center;verticalAlign=middle;resizable=0;points=[];" vertex="1" connectable="0" parent="Apdd7xmMuzyrqDYArtQR-132">
          <mxGeometry x="-0.9119" y="-1" relative="1" as="geometry">
            <mxPoint x="23" y="-1" as="offset" />
          </mxGeometry>
        </mxCell>
        <mxCell id="Apdd7xmMuzyrqDYArtQR-134" style="edgeStyle=orthogonalEdgeStyle;rounded=0;orthogonalLoop=1;jettySize=auto;html=1;entryX=0;entryY=0.5;entryDx=0;entryDy=0;exitX=0.75;exitY=0;exitDx=0;exitDy=0;endArrow=none;endFill=0;" edge="1" parent="1" source="Apdd7xmMuzyrqDYArtQR-1" target="Apdd7xmMuzyrqDYArtQR-129">
          <mxGeometry relative="1" as="geometry">
            <mxPoint x="560" y="-230" as="sourcePoint" />
            <mxPoint x="900" y="-390" as="targetPoint" />
            <Array as="points">
              <mxPoint x="620" y="-380" />
            </Array>
          </mxGeometry>
        </mxCell>
        <mxCell id="Apdd7xmMuzyrqDYArtQR-135" value="&lt;font style=&quot;font-size: 15px;&quot;&gt;N&lt;/font&gt;" style="edgeLabel;html=1;align=center;verticalAlign=middle;resizable=0;points=[];" vertex="1" connectable="0" parent="Apdd7xmMuzyrqDYArtQR-134">
          <mxGeometry x="0.9293" y="-1" relative="1" as="geometry">
            <mxPoint x="-16" y="-1" as="offset" />
          </mxGeometry>
        </mxCell>
        <mxCell id="Apdd7xmMuzyrqDYArtQR-136" style="edgeStyle=orthogonalEdgeStyle;rounded=0;orthogonalLoop=1;jettySize=auto;html=1;entryX=0;entryY=0.5;entryDx=0;entryDy=0;exitX=1;exitY=0.25;exitDx=0;exitDy=0;endArrow=none;endFill=0;" edge="1" parent="1" source="Apdd7xmMuzyrqDYArtQR-1" target="Apdd7xmMuzyrqDYArtQR-128">
          <mxGeometry relative="1" as="geometry">
            <mxPoint x="670" y="-290" as="sourcePoint" />
            <mxPoint x="1010" y="-590" as="targetPoint" />
            <Array as="points">
              <mxPoint x="690" y="-60" />
              <mxPoint x="690" y="-290" />
            </Array>
          </mxGeometry>
        </mxCell>
        <mxCell id="Apdd7xmMuzyrqDYArtQR-137" value="&lt;font style=&quot;font-size: 15px;&quot;&gt;N&lt;/font&gt;" style="edgeLabel;html=1;align=center;verticalAlign=middle;resizable=0;points=[];" vertex="1" connectable="0" parent="Apdd7xmMuzyrqDYArtQR-136">
          <mxGeometry x="0.9293" y="-1" relative="1" as="geometry">
            <mxPoint x="-16" y="-1" as="offset" />
          </mxGeometry>
        </mxCell>
        <mxCell id="Apdd7xmMuzyrqDYArtQR-138" style="edgeStyle=orthogonalEdgeStyle;rounded=0;orthogonalLoop=1;jettySize=auto;html=1;exitX=1;exitY=0.5;exitDx=0;exitDy=0;endArrow=none;endFill=0;entryX=0.75;entryY=0;entryDx=0;entryDy=0;" edge="1" parent="1" source="Apdd7xmMuzyrqDYArtQR-129" target="Apdd7xmMuzyrqDYArtQR-10">
          <mxGeometry relative="1" as="geometry">
            <mxPoint x="1140" y="-550" as="sourcePoint" />
            <mxPoint x="2220" y="-380" as="targetPoint" />
            <Array as="points">
              <mxPoint x="2220" y="-380" />
            </Array>
          </mxGeometry>
        </mxCell>
        <mxCell id="Apdd7xmMuzyrqDYArtQR-139" value="&lt;font style=&quot;font-size: 15px;&quot;&gt;1&lt;/font&gt;" style="edgeLabel;html=1;align=center;verticalAlign=middle;resizable=0;points=[];" vertex="1" connectable="0" parent="Apdd7xmMuzyrqDYArtQR-138">
          <mxGeometry x="-0.9119" y="-1" relative="1" as="geometry">
            <mxPoint x="-23" y="-1" as="offset" />
          </mxGeometry>
        </mxCell>
        <mxCell id="Apdd7xmMuzyrqDYArtQR-140" style="edgeStyle=orthogonalEdgeStyle;rounded=0;orthogonalLoop=1;jettySize=auto;html=1;exitX=1;exitY=0.5;exitDx=0;exitDy=0;entryX=0.5;entryY=0;entryDx=0;entryDy=0;endArrow=none;endFill=0;" edge="1" parent="1" source="Apdd7xmMuzyrqDYArtQR-128" target="Apdd7xmMuzyrqDYArtQR-9">
          <mxGeometry relative="1" as="geometry">
            <mxPoint x="1130" y="-300" as="sourcePoint" />
            <mxPoint x="1630" y="-300" as="targetPoint" />
            <Array as="points">
              <mxPoint x="1710" y="-290" />
            </Array>
          </mxGeometry>
        </mxCell>
        <mxCell id="Apdd7xmMuzyrqDYArtQR-141" value="&lt;font style=&quot;font-size: 15px;&quot;&gt;1&lt;/font&gt;" style="edgeLabel;html=1;align=center;verticalAlign=middle;resizable=0;points=[];" vertex="1" connectable="0" parent="Apdd7xmMuzyrqDYArtQR-140">
          <mxGeometry x="-0.9119" y="-1" relative="1" as="geometry">
            <mxPoint as="offset" />
          </mxGeometry>
        </mxCell>
        <mxCell id="Apdd7xmMuzyrqDYArtQR-142" value="Commands" style="rhombus;whiteSpace=wrap;html=1;" vertex="1" parent="1">
          <mxGeometry x="930" y="-510" width="120" height="80" as="geometry" />
        </mxCell>
        <mxCell id="Apdd7xmMuzyrqDYArtQR-144" style="edgeStyle=orthogonalEdgeStyle;rounded=0;orthogonalLoop=1;jettySize=auto;html=1;entryX=0;entryY=0.5;entryDx=0;entryDy=0;exitX=0.5;exitY=0;exitDx=0;exitDy=0;endArrow=none;endFill=0;" edge="1" parent="1" source="Apdd7xmMuzyrqDYArtQR-1" target="Apdd7xmMuzyrqDYArtQR-142">
          <mxGeometry relative="1" as="geometry">
            <mxPoint x="570" y="-170" as="sourcePoint" />
            <mxPoint x="880" y="-470" as="targetPoint" />
            <Array as="points">
              <mxPoint x="590" y="-470" />
            </Array>
          </mxGeometry>
        </mxCell>
        <mxCell id="Apdd7xmMuzyrqDYArtQR-145" value="&lt;font style=&quot;font-size: 15px;&quot;&gt;1&lt;/font&gt;" style="edgeLabel;html=1;align=center;verticalAlign=middle;resizable=0;points=[];" vertex="1" connectable="0" parent="Apdd7xmMuzyrqDYArtQR-144">
          <mxGeometry x="0.9293" y="-1" relative="1" as="geometry">
            <mxPoint x="-16" y="-1" as="offset" />
          </mxGeometry>
        </mxCell>
        <mxCell id="Apdd7xmMuzyrqDYArtQR-146" style="edgeStyle=orthogonalEdgeStyle;rounded=0;orthogonalLoop=1;jettySize=auto;html=1;exitX=1;exitY=0.5;exitDx=0;exitDy=0;endArrow=none;endFill=0;entryX=1;entryY=0.5;entryDx=0;entryDy=0;" edge="1" parent="1" source="Apdd7xmMuzyrqDYArtQR-142" target="Apdd7xmMuzyrqDYArtQR-13">
          <mxGeometry relative="1" as="geometry">
            <mxPoint x="1120" y="-470.77" as="sourcePoint" />
            <mxPoint x="3000" y="-480" as="targetPoint" />
            <Array as="points">
              <mxPoint x="2850" y="-470" />
              <mxPoint x="2850" y="160" />
            </Array>
          </mxGeometry>
        </mxCell>
        <mxCell id="Apdd7xmMuzyrqDYArtQR-147" value="&lt;font style=&quot;font-size: 15px;&quot;&gt;N&lt;/font&gt;" style="edgeLabel;html=1;align=center;verticalAlign=middle;resizable=0;points=[];" vertex="1" connectable="0" parent="Apdd7xmMuzyrqDYArtQR-146">
          <mxGeometry x="-0.9119" y="-1" relative="1" as="geometry">
            <mxPoint x="-70" y="-1" as="offset" />
          </mxGeometry>
        </mxCell>
        <mxCell id="Apdd7xmMuzyrqDYArtQR-148" value="Associated" style="rhombus;whiteSpace=wrap;html=1;" vertex="1" parent="1">
          <mxGeometry x="2008" y="260" width="120" height="80" as="geometry" />
        </mxCell>
        <mxCell id="Apdd7xmMuzyrqDYArtQR-149" style="edgeStyle=orthogonalEdgeStyle;rounded=0;orthogonalLoop=1;jettySize=auto;html=1;entryX=0;entryY=0.5;entryDx=0;entryDy=0;exitX=1;exitY=0.5;exitDx=0;exitDy=0;endArrow=none;endFill=0;" edge="1" parent="1" source="Apdd7xmMuzyrqDYArtQR-8" target="Apdd7xmMuzyrqDYArtQR-148">
          <mxGeometry relative="1" as="geometry">
            <mxPoint x="1120" y="700" as="sourcePoint" />
            <mxPoint x="1460" y="310" as="targetPoint" />
            <Array as="points">
              <mxPoint x="1130" y="-40" />
              <mxPoint x="1130" y="300" />
            </Array>
          </mxGeometry>
        </mxCell>
        <mxCell id="Apdd7xmMuzyrqDYArtQR-150" value="&lt;font style=&quot;font-size: 15px;&quot;&gt;N&lt;/font&gt;" style="edgeLabel;html=1;align=center;verticalAlign=middle;resizable=0;points=[];" vertex="1" connectable="0" parent="Apdd7xmMuzyrqDYArtQR-149">
          <mxGeometry x="0.9293" y="-1" relative="1" as="geometry">
            <mxPoint x="6" y="-1" as="offset" />
          </mxGeometry>
        </mxCell>
        <mxCell id="Apdd7xmMuzyrqDYArtQR-151" style="edgeStyle=orthogonalEdgeStyle;rounded=0;orthogonalLoop=1;jettySize=auto;html=1;exitX=1;exitY=0.5;exitDx=0;exitDy=0;endArrow=none;endFill=0;entryX=0;entryY=0.5;entryDx=0;entryDy=0;" edge="1" parent="1" source="Apdd7xmMuzyrqDYArtQR-148" target="Apdd7xmMuzyrqDYArtQR-12">
          <mxGeometry relative="1" as="geometry">
            <mxPoint x="1580" y="200" as="sourcePoint" />
            <mxPoint x="2260" y="260" as="targetPoint" />
            <Array as="points" />
          </mxGeometry>
        </mxCell>
        <mxCell id="Apdd7xmMuzyrqDYArtQR-152" value="&lt;font style=&quot;font-size: 15px;&quot;&gt;M&lt;/font&gt;" style="edgeLabel;html=1;align=center;verticalAlign=middle;resizable=0;points=[];" vertex="1" connectable="0" parent="Apdd7xmMuzyrqDYArtQR-151">
          <mxGeometry x="-0.9119" y="-1" relative="1" as="geometry">
            <mxPoint x="33" y="-1" as="offset" />
          </mxGeometry>
        </mxCell>
        <mxCell id="Apdd7xmMuzyrqDYArtQR-153" value="AtPort" style="rhombus;whiteSpace=wrap;html=1;" vertex="1" parent="1">
          <mxGeometry x="2008" y="170" width="120" height="80" as="geometry" />
        </mxCell>
        <mxCell id="Apdd7xmMuzyrqDYArtQR-155" style="edgeStyle=orthogonalEdgeStyle;rounded=0;orthogonalLoop=1;jettySize=auto;html=1;exitX=1;exitY=0.5;exitDx=0;exitDy=0;entryX=0;entryY=0.5;entryDx=0;entryDy=0;endArrow=none;endFill=0;" edge="1" parent="1" source="Apdd7xmMuzyrqDYArtQR-6" target="Apdd7xmMuzyrqDYArtQR-153">
          <mxGeometry relative="1" as="geometry">
            <mxPoint x="1610" y="540" as="sourcePoint" />
            <mxPoint x="1890" y="380" as="targetPoint" />
            <Array as="points">
              <mxPoint x="1490" y="-40" />
              <mxPoint x="1490" y="210" />
            </Array>
          </mxGeometry>
        </mxCell>
        <mxCell id="Apdd7xmMuzyrqDYArtQR-156" value="&lt;font style=&quot;font-size: 15px;&quot;&gt;1&lt;/font&gt;" style="edgeLabel;html=1;align=center;verticalAlign=middle;resizable=0;points=[];" vertex="1" connectable="0" parent="Apdd7xmMuzyrqDYArtQR-155">
          <mxGeometry x="0.9293" y="-1" relative="1" as="geometry">
            <mxPoint x="-8" y="-1" as="offset" />
          </mxGeometry>
        </mxCell>
        <mxCell id="Apdd7xmMuzyrqDYArtQR-157" style="edgeStyle=orthogonalEdgeStyle;rounded=0;orthogonalLoop=1;jettySize=auto;html=1;exitX=1;exitY=0.5;exitDx=0;exitDy=0;entryX=0.25;entryY=0;entryDx=0;entryDy=0;endArrow=none;endFill=0;" edge="1" parent="1" source="Apdd7xmMuzyrqDYArtQR-153" target="Apdd7xmMuzyrqDYArtQR-11">
          <mxGeometry relative="1" as="geometry">
            <mxPoint x="1890" y="330" as="sourcePoint" />
            <mxPoint x="2160" y="450" as="targetPoint" />
            <Array as="points">
              <mxPoint x="2330" y="210" />
              <mxPoint x="2330" y="-160" />
              <mxPoint x="2520" y="-160" />
            </Array>
          </mxGeometry>
        </mxCell>
        <mxCell id="Apdd7xmMuzyrqDYArtQR-158" value="&lt;font style=&quot;font-size: 15px;&quot;&gt;N&lt;/font&gt;" style="edgeLabel;html=1;align=center;verticalAlign=middle;resizable=0;points=[];" vertex="1" connectable="0" parent="Apdd7xmMuzyrqDYArtQR-157">
          <mxGeometry x="-0.9119" y="-1" relative="1" as="geometry">
            <mxPoint x="5" y="-1" as="offset" />
          </mxGeometry>
        </mxCell>
        <mxCell id="Apdd7xmMuzyrqDYArtQR-160" value="Includes" style="rhombus;whiteSpace=wrap;html=1;" vertex="1" parent="1">
          <mxGeometry x="1890" y="-230" width="120" height="80" as="geometry" />
        </mxCell>
        <mxCell id="Apdd7xmMuzyrqDYArtQR-161" style="edgeStyle=orthogonalEdgeStyle;rounded=0;orthogonalLoop=1;jettySize=auto;html=1;exitX=0.75;exitY=0;exitDx=0;exitDy=0;entryX=0;entryY=0.5;entryDx=0;entryDy=0;shape=link;" edge="1" parent="1" source="Apdd7xmMuzyrqDYArtQR-9" target="Apdd7xmMuzyrqDYArtQR-160">
          <mxGeometry relative="1" as="geometry">
            <mxPoint x="1950" y="-10" as="sourcePoint" />
            <mxPoint x="2023" y="250" as="targetPoint" />
            <Array as="points">
              <mxPoint x="1740" y="-190" />
            </Array>
          </mxGeometry>
        </mxCell>
        <mxCell id="Apdd7xmMuzyrqDYArtQR-162" value="&lt;font style=&quot;font-size: 15px;&quot;&gt;N&lt;/font&gt;" style="edgeLabel;html=1;align=center;verticalAlign=middle;resizable=0;points=[];" vertex="1" connectable="0" parent="Apdd7xmMuzyrqDYArtQR-161">
          <mxGeometry x="0.9293" y="-1" relative="1" as="geometry">
            <mxPoint x="-31" y="-1" as="offset" />
          </mxGeometry>
        </mxCell>
        <mxCell id="Apdd7xmMuzyrqDYArtQR-163" style="edgeStyle=orthogonalEdgeStyle;rounded=0;orthogonalLoop=1;jettySize=auto;html=1;exitX=1;exitY=0.5;exitDx=0;exitDy=0;entryX=0.25;entryY=0;entryDx=0;entryDy=0;endArrow=none;endFill=0;" edge="1" parent="1" source="Apdd7xmMuzyrqDYArtQR-160" target="Apdd7xmMuzyrqDYArtQR-10">
          <mxGeometry relative="1" as="geometry">
            <mxPoint x="2040" y="-230" as="sourcePoint" />
            <mxPoint x="2310" y="-110" as="targetPoint" />
            <Array as="points">
              <mxPoint x="2160" y="-190" />
            </Array>
          </mxGeometry>
        </mxCell>
        <mxCell id="Apdd7xmMuzyrqDYArtQR-164" value="&lt;font style=&quot;font-size: 15px;&quot;&gt;1&lt;/font&gt;" style="edgeLabel;html=1;align=center;verticalAlign=middle;resizable=0;points=[];" vertex="1" connectable="0" parent="Apdd7xmMuzyrqDYArtQR-163">
          <mxGeometry x="-0.9119" y="-1" relative="1" as="geometry">
            <mxPoint x="23" y="-1" as="offset" />
          </mxGeometry>
        </mxCell>
        <mxCell id="Apdd7xmMuzyrqDYArtQR-165" value="Onboard" style="rhombus;whiteSpace=wrap;html=1;" vertex="1" parent="1">
          <mxGeometry x="2008" y="80" width="120" height="80" as="geometry" />
        </mxCell>
        <mxCell id="Apdd7xmMuzyrqDYArtQR-166" style="edgeStyle=orthogonalEdgeStyle;rounded=0;orthogonalLoop=1;jettySize=auto;html=1;exitX=1;exitY=0.5;exitDx=0;exitDy=0;entryX=0.75;entryY=0;entryDx=0;entryDy=0;endArrow=none;endFill=0;" edge="1" parent="1" source="Apdd7xmMuzyrqDYArtQR-165" target="Apdd7xmMuzyrqDYArtQR-11">
          <mxGeometry relative="1" as="geometry">
            <mxPoint x="2160" y="140" as="sourcePoint" />
            <mxPoint x="2582" y="-150" as="targetPoint" />
            <Array as="points">
              <mxPoint x="2290" y="120" />
              <mxPoint x="2290" y="-200" />
              <mxPoint x="2582" y="-200" />
              <mxPoint x="2582" y="-80" />
            </Array>
          </mxGeometry>
        </mxCell>
        <mxCell id="Apdd7xmMuzyrqDYArtQR-167" value="&lt;font style=&quot;font-size: 15px;&quot;&gt;N&lt;/font&gt;" style="edgeLabel;html=1;align=center;verticalAlign=middle;resizable=0;points=[];" vertex="1" connectable="0" parent="Apdd7xmMuzyrqDYArtQR-166">
          <mxGeometry x="-0.9119" y="-1" relative="1" as="geometry">
            <mxPoint x="3" y="-1" as="offset" />
          </mxGeometry>
        </mxCell>
        <mxCell id="Apdd7xmMuzyrqDYArtQR-168" style="edgeStyle=orthogonalEdgeStyle;rounded=0;orthogonalLoop=1;jettySize=auto;html=1;entryX=0;entryY=0.5;entryDx=0;entryDy=0;endArrow=none;endFill=0;exitX=0.75;exitY=1;exitDx=0;exitDy=0;" edge="1" parent="1" source="Apdd7xmMuzyrqDYArtQR-9" target="Apdd7xmMuzyrqDYArtQR-165">
          <mxGeometry relative="1" as="geometry">
            <mxPoint x="1460" y="10" as="sourcePoint" />
            <mxPoint x="2009" y="245" as="targetPoint" />
            <Array as="points">
              <mxPoint x="1740" y="120" />
            </Array>
          </mxGeometry>
        </mxCell>
        <mxCell id="Apdd7xmMuzyrqDYArtQR-169" value="&lt;font style=&quot;font-size: 15px;&quot;&gt;1&lt;/font&gt;" style="edgeLabel;html=1;align=center;verticalAlign=middle;resizable=0;points=[];" vertex="1" connectable="0" parent="Apdd7xmMuzyrqDYArtQR-168">
          <mxGeometry x="0.9293" y="-1" relative="1" as="geometry">
            <mxPoint x="-24" y="-1" as="offset" />
          </mxGeometry>
        </mxCell>
        <mxCell id="Apdd7xmMuzyrqDYArtQR-170" value="Booked" style="rhombus;whiteSpace=wrap;html=1;" vertex="1" parent="1">
          <mxGeometry x="2008" y="350" width="120" height="80" as="geometry" />
        </mxCell>
        <mxCell id="Apdd7xmMuzyrqDYArtQR-171" style="edgeStyle=orthogonalEdgeStyle;rounded=0;orthogonalLoop=1;jettySize=auto;html=1;exitX=1;exitY=0.5;exitDx=0;exitDy=0;endArrow=none;endFill=0;entryX=0.5;entryY=1;entryDx=0;entryDy=0;" edge="1" parent="1" source="Apdd7xmMuzyrqDYArtQR-170" target="Apdd7xmMuzyrqDYArtQR-12">
          <mxGeometry relative="1" as="geometry">
            <mxPoint x="2150" y="500.04999999999995" as="sourcePoint" />
            <mxPoint x="2372" y="500.04999999999995" as="targetPoint" />
            <Array as="points">
              <mxPoint x="2410" y="390" />
            </Array>
          </mxGeometry>
        </mxCell>
        <mxCell id="Apdd7xmMuzyrqDYArtQR-172" value="&lt;font style=&quot;font-size: 15px;&quot;&gt;M&lt;/font&gt;" style="edgeLabel;html=1;align=center;verticalAlign=middle;resizable=0;points=[];" vertex="1" connectable="0" parent="Apdd7xmMuzyrqDYArtQR-171">
          <mxGeometry x="-0.9119" y="-1" relative="1" as="geometry">
            <mxPoint x="20" y="-1" as="offset" />
          </mxGeometry>
        </mxCell>
        <mxCell id="Apdd7xmMuzyrqDYArtQR-173" style="edgeStyle=orthogonalEdgeStyle;rounded=0;orthogonalLoop=1;jettySize=auto;html=1;exitX=0.5;exitY=1;exitDx=0;exitDy=0;entryX=0;entryY=0.5;entryDx=0;entryDy=0;endArrow=none;endFill=0;jumpStyle=arc;jumpSize=10;" edge="1" parent="1" source="Apdd7xmMuzyrqDYArtQR-9" target="Apdd7xmMuzyrqDYArtQR-170">
          <mxGeometry relative="1" as="geometry">
            <mxPoint x="1420" y="240" as="sourcePoint" />
            <mxPoint x="2018" y="490" as="targetPoint" />
            <Array as="points">
              <mxPoint x="1710" y="390" />
            </Array>
          </mxGeometry>
        </mxCell>
        <mxCell id="Apdd7xmMuzyrqDYArtQR-174" value="&lt;font style=&quot;font-size: 15px;&quot;&gt;N&lt;/font&gt;" style="edgeLabel;html=1;align=center;verticalAlign=middle;resizable=0;points=[];" vertex="1" connectable="0" parent="Apdd7xmMuzyrqDYArtQR-173">
          <mxGeometry x="0.9293" y="-1" relative="1" as="geometry">
            <mxPoint x="-13" y="-1" as="offset" />
          </mxGeometry>
        </mxCell>
      </root>
    </mxGraphModel>
  </diagram>
</mxfile>
